<?xml version="1.0" standalone="no"?><!DOCTYPE svg PUBLIC "-//W3C//DTD SVG 1.1//EN" "http://www.w3.org/Graphics/SVG/1.1/DTD/svg11.dtd"><svg t="1691678711565" class="icon" viewBox="0 0 1024 1024" version="1.1" xmlns="http://www.w3.org/2000/svg" p-id="5690" xmlns:xlink="http://www.w3.org/1999/xlink" width="200" height="200"><path d="M782.607 1023.127A240.43 240.43 0 0 1 568.14 891.12l94.208-94.178 67.404 67.403c6.113 6.114 14.456 8.433 22.678 7.74a28.04 28.04 0 0 0 22.89-7.62l97.49-97.49v45.809a30.118 30.118 0 0 0 30.058 30.057 30.118 30.118 0 0 0 30.057-30.057v-120.38a30.118 30.118 0 0 0-30.057-30.058h-120.26a30.118 30.118 0 0 0-30.087 30.058 30.118 30.118 0 0 0 30.087 30.057h45.93L752.64 798.36l-67.403-67.464a28.04 28.04 0 0 0-22.89-7.62 28.01 28.01 0 0 0-22.678 7.77l-93.636 93.576a246.302 246.302 0 0 1-3.885-41.924 240.55 240.55 0 0 1 481.069 0c0 132.82-107.821 240.4-240.64 240.4zM583.981 366.35c-7.138 10.12-21.835 10.36-28.16 22.197-9.186 17.167-4.005 40.99-9.637 59.452-6.807 21.022-23.613 22.287-24.908 49.694 8.222 1.265 16.444 2.32 24.908 3.614 7.378 15.963 20.299 45.478 34.183 59.332a299.43 299.43 0 0 0-92.34 282.202H0.993c-0.843-38.85 1.989-109.205 1.989-138.69 15.058-43.822 34.514-50.026 75.896-67.645 45.538-19.395 95.925-41.713 141.252-60.386 12.95-3.614 25.961-7.168 38.882-10.54 15.51-10.843 30.54-46.412 38.882-64.151l18.432-4.458c-4.096-23.371-18.553-25.148-24.546-41.803-2.35-24.907-4.82-49.815-7.048-74.601 0 1.204-17.016-3.163-19.124-4.578-23.974-15.15-24.456-76.56-26.805-102.16-0.904-11.745 15.149-21.383 10.571-42.766-26.293-125.44 11.415-184.17 70.957-203.656 41.322-16.866 118.483-48.038 190.615-3.524l17.619 16.685 29.003 5.06c14.456 8.433 23.733 36.292 23.733 36.292h-0.12c7.529 30.87 8.432 33.43 7.619 65.175-0.331 12.197-7.258 68.818-5.391 85.955 1.506 14.336 5.06 15.51 10.812 27.257 9.638 20.45 6.566 48.73 2.801 69.421-2.108 11.264-6.445 27.347-13.04 36.623z" p-id="5691"></path></svg>